<svg xmlns="http://www.w3.org/2000/svg" viewBox="0 0 800 500">
  <defs>
    <linearGradient id="bg" x1="0" y1="1" x2="0" y2="0">
      <stop offset="0" stop-color="#0e241f"/>
      <stop offset="0.55" stop-color="#24504a"/>
      <stop offset="1" stop-color="#3f7a6e"/>
    </linearGradient>
    <radialGradient id="vignette" cx="0.5" cy="0.5" r="0.72">
      <stop offset="0.6" stop-color="#000" stop-opacity="0"/>
      <stop offset="1" stop-color="#000" stop-opacity="0.5"/>
    </radialGradient>
    <radialGradient id="glow" cx="0.5" cy="0.44" r="0.5">
      <stop offset="0" stop-color="#cfe8d9" stop-opacity="0.5"/>
      <stop offset="1" stop-color="#cfe8d9" stop-opacity="0"/>
    </radialGradient>
    <radialGradient id="halo" cx="0.5" cy="0.5" r="0.5">
      <stop offset="0.62" stop-color="#cfe8d9" stop-opacity="0"/>
      <stop offset="0.78" stop-color="#cfe8d9" stop-opacity="0.55"/>
      <stop offset="0.86" stop-color="#cfe8d9" stop-opacity="0.12"/>
      <stop offset="1" stop-color="#cfe8d9" stop-opacity="0"/>
    </radialGradient>
    <filter id="soft" x="-60%" y="-60%" width="220%" height="220%">
      <feGaussianBlur stdDeviation="1.6"/>
    </filter>
    <filter id="blur6" x="-60%" y="-60%" width="220%" height="220%">
      <feGaussianBlur stdDeviation="6"/>
    </filter>
  </defs>
  <rect width="800" height="500" fill="url(#bg)"/>
  <!-- 星空 -->
  <g fill="#ffffff">
    <circle cx="330" cy="169" r="1.1" opacity="0.74"/>
    <circle cx="269" cy="155" r="1.5" opacity="0.30"/>
    <circle cx="719" cy="49" r="0.5" opacity="0.48"/>
    <circle cx="339" cy="248" r="1.6" opacity="0.69"/>
    <circle cx="760" cy="245" r="0.5" opacity="0.65"/>
    <circle cx="701" cy="229" r="1.7" opacity="0.33"/>
    <circle cx="348" cy="142" r="1.5" opacity="0.34"/>
    <circle cx="707" cy="124" r="0.7" opacity="0.39"/>
    <circle cx="755" cy="43" r="0.9" opacity="0.57"/>
    <circle cx="119" cy="86" r="0.7" opacity="0.73"/>
    <circle cx="366" cy="250" r="0.8" opacity="0.53"/>
    <circle cx="523" cy="273" r="0.8" opacity="0.64"/>
    <circle cx="605" cy="85" r="1.2" opacity="0.47"/>
    <circle cx="556" cy="66" r="1.7" opacity="0.63"/>
    <circle cx="209" cy="156" r="1.2" opacity="0.72"/>
    <circle cx="535" cy="234" r="1.0" opacity="0.44"/>
    <circle cx="468" cy="73" r="0.6" opacity="0.37"/>
    <circle cx="120" cy="242" r="0.9" opacity="0.66"/>
    <circle cx="376" cy="297" r="1.2" opacity="0.66"/>
    <circle cx="708" cy="300" r="0.6" opacity="0.59"/>
    <circle cx="415" cy="41" r="1.8" opacity="0.45"/>
    <circle cx="65" cy="62" r="1.9" opacity="0.61"/>
    <circle cx="136" cy="210" r="1.1" opacity="0.39"/>
    <circle cx="280" cy="260" r="1.3" opacity="0.38"/>
    <circle cx="484" cy="290" r="1.2" opacity="0.72"/>
    <circle cx="157" cy="93" r="1.4" opacity="0.56"/>
    <circle cx="696" cy="273" r="1.7" opacity="0.31"/>
    <circle cx="145" cy="246" r="0.9" opacity="0.75"/>
  </g>
  <!-- 星座 -->
  <g stroke="#cfe8d9" stroke-width="1" opacity="0.5">
    <line x1="140" y1="165" x2="185" y2="132"/>
    <line x1="185" y1="132" x2="225" y2="118"/>
    <line x1="225" y1="118" x2="205" y2="85"/>
    <line x1="225" y1="118" x2="268" y2="150"/>
    <line x1="268" y1="150" x2="300" y2="170"/>
  </g>
  <g fill="#cfe8d9" opacity="0.9">
    <circle cx="140" cy="165" r="4" filter="url(#soft)"/>
    <circle cx="185" cy="132" r="3" filter="url(#soft)"/>
    <circle cx="225" cy="118" r="3" filter="url(#soft)"/>
    <circle cx="205" cy="85" r="4" filter="url(#soft)"/>
    <circle cx="268" cy="150" r="3" filter="url(#soft)"/>
    <circle cx="300" cy="170" r="3" filter="url(#soft)"/>
  </g>
  <path d="M0 470 C 200 445, 600 445, 800 470 L 800 500 L 0 500 Z" fill="#cfe8d9" opacity="0.14"/>
  <!-- 後光 -->
  <circle cx="400" cy="220" r="185" fill="url(#halo)"/>
  <circle cx="400" cy="220" r="240" fill="url(#glow)"/>
  <circle cx="400" cy="218" r="120" fill="none" stroke="#cfe8d9" stroke-width="1.5" opacity="0.4"/>
  <circle cx="400" cy="218" r="132" fill="none" stroke="#cfe8d9" stroke-width="0.8" opacity="0.25"/>
  <!-- 髪の面 -->
  <g fill="#8fc4a8" opacity="0.22" filter="url(#blur6)">
    <path d="M360 235 C 300 310, 260 360, 190 430 C 270 370, 315 315, 380 245 Z"/>
    <path d="M440 235 C 500 310, 540 360, 610 430 C 530 370, 485 315, 420 245 Z"/>
  </g>
  <!-- 髪の主線 -->
  <g stroke="#cfe8d9" stroke-width="4" fill="none" opacity="0.8" stroke-linecap="round">
    <path d="M370 250 C 330 320, 300 380, 240 460"/>
    <path d="M430 250 C 470 320, 500 380, 560 460"/>
    <path d="M355 240 C 290 300, 250 340, 170 400"/>
    <path d="M445 240 C 510 300, 550 340, 630 400"/>
    <path d="M385 260 C 360 350, 340 420, 300 500"/>
    <path d="M415 260 C 440 350, 460 420, 500 500"/>
    <path d="M348 225 C 260 260, 200 280, 120 330"/>
    <path d="M452 225 C 540 260, 600 280, 680 330"/>
  </g>
  <g stroke="#8fc4a8" stroke-width="2.2" fill="none" opacity="0.5" stroke-linecap="round">
    <path d="M370 250 C 330 320, 300 380, 240 460" transform="translate(9,12)"/>
    <path d="M430 250 C 470 320, 500 380, 560 460" transform="translate(9,12)"/>
    <path d="M355 240 C 290 300, 250 340, 170 400" transform="translate(9,12)"/>
    <path d="M445 240 C 510 300, 550 340, 630 400" transform="translate(9,12)"/>
    <path d="M385 260 C 360 350, 340 420, 300 500" transform="translate(9,12)"/>
  </g>
  <g fill="#cfe8d9" opacity="0.85">
    <circle cx="250" cy="420" r="4"/>
    <circle cx="560" cy="430" r="3"/>
    <circle cx="180" cy="370" r="3"/>
    <circle cx="620" cy="360" r="4"/>
    <circle cx="320" cy="470" r="3"/>
    <circle cx="490" cy="465" r="2.5"/>
    <circle cx="140" cy="340" r="2.5"/>
  </g>
  <!-- 神様 -->
  <g fill="#0e241f">
    <circle cx="400" cy="215" r="55"/>
    <path d="M392 268 L 408 268 L 410 292 L 390 292 Z"/>
    <path d="M310 400 C 318 300, 370 285, 400 285 C 430 285, 482 300, 490 400 C 495 450, 495 500, 495 500 L 305 500 C 305 500, 305 450, 310 400 Z"/>
  </g>
  <!-- 衣の襞 -->
  <g stroke="#cfe8d9" stroke-width="1.2" fill="none" opacity="0.3">
    <path d="M360 310 C 352 380, 350 440, 352 500"/>
    <path d="M440 310 C 448 380, 450 440, 448 500"/>
    <path d="M400 300 C 400 370, 400 440, 400 500"/>
  </g>
  <!-- 襟元の光 -->
  <path d="M368 300 C 385 322, 415 322, 432 300" fill="none" stroke="#cfe8d9" stroke-width="2" opacity="0.55"/>
  <!-- 輪郭のふち光 -->
  <circle cx="400" cy="215" r="55" fill="none" stroke="#cfe8d9" stroke-width="2.2" opacity="0.65"/>
  <path d="M312 395 C 322 302, 372 287, 400 287 C 428 287, 478 302, 488 395" fill="none" stroke="#cfe8d9" stroke-width="1.8" opacity="0.45"/>
  <g fill="#cfe8d9" opacity="0.95" filter="url(#soft)">
    <path d="M400 130 C 388 118, 386 102, 396 90 C 402 102, 402 118, 400 130 Z"/>
    <path d="M404 128 C 414 120, 420 106, 414 94 C 406 104, 404 116, 404 128 Z"/></g>
  <rect width="800" height="500" fill="url(#vignette)"/>
</svg>
