<svg xmlns="http://www.w3.org/2000/svg" viewBox="0 0 800 500">
  <defs>
    <linearGradient id="bg" x1="0" y1="1" x2="0" y2="0">
      <stop offset="0" stop-color="#14171c"/>
      <stop offset="0.55" stop-color="#3a4550"/>
      <stop offset="1" stop-color="#5a6875"/>
    </linearGradient>
    <radialGradient id="vignette" cx="0.5" cy="0.5" r="0.72">
      <stop offset="0.6" stop-color="#000" stop-opacity="0"/>
      <stop offset="1" stop-color="#000" stop-opacity="0.5"/>
    </radialGradient>
    <radialGradient id="glow" cx="0.5" cy="0.44" r="0.5">
      <stop offset="0" stop-color="#d9dde3" stop-opacity="0.5"/>
      <stop offset="1" stop-color="#d9dde3" stop-opacity="0"/>
    </radialGradient>
    <radialGradient id="halo" cx="0.5" cy="0.5" r="0.5">
      <stop offset="0.62" stop-color="#d9dde3" stop-opacity="0"/>
      <stop offset="0.78" stop-color="#d9dde3" stop-opacity="0.55"/>
      <stop offset="0.86" stop-color="#d9dde3" stop-opacity="0.12"/>
      <stop offset="1" stop-color="#d9dde3" stop-opacity="0"/>
    </radialGradient>
    <filter id="soft" x="-60%" y="-60%" width="220%" height="220%">
      <feGaussianBlur stdDeviation="1.6"/>
    </filter>
    <filter id="blur6" x="-60%" y="-60%" width="220%" height="220%">
      <feGaussianBlur stdDeviation="6"/>
    </filter>
  </defs>
  <rect width="800" height="500" fill="url(#bg)"/>
  <!-- 星空 -->
  <g fill="#ffffff">
    <circle cx="467" cy="245" r="0.6" opacity="0.39"/>
    <circle cx="229" cy="113" r="0.6" opacity="0.53"/>
    <circle cx="251" cy="214" r="0.8" opacity="0.34"/>
    <circle cx="188" cy="221" r="1.3" opacity="0.37"/>
    <circle cx="178" cy="87" r="1.4" opacity="0.73"/>
    <circle cx="202" cy="286" r="0.9" opacity="0.30"/>
    <circle cx="676" cy="194" r="1.1" opacity="0.62"/>
    <circle cx="270" cy="198" r="1.7" opacity="0.52"/>
    <circle cx="430" cy="264" r="1.3" opacity="0.57"/>
    <circle cx="532" cy="110" r="0.8" opacity="0.43"/>
    <circle cx="545" cy="165" r="1.6" opacity="0.40"/>
    <circle cx="193" cy="187" r="0.9" opacity="0.32"/>
    <circle cx="190" cy="304" r="1.8" opacity="0.61"/>
    <circle cx="400" cy="288" r="1.4" opacity="0.71"/>
    <circle cx="81" cy="158" r="1.8" opacity="0.44"/>
    <circle cx="153" cy="204" r="1.3" opacity="0.40"/>
    <circle cx="559" cy="54" r="1.7" opacity="0.59"/>
    <circle cx="56" cy="134" r="1.5" opacity="0.64"/>
    <circle cx="493" cy="195" r="1.1" opacity="0.62"/>
    <circle cx="665" cy="203" r="0.9" opacity="0.47"/>
    <circle cx="138" cy="222" r="1.2" opacity="0.44"/>
    <circle cx="95" cy="226" r="1.5" opacity="0.67"/>
    <circle cx="130" cy="230" r="1.3" opacity="0.57"/>
    <circle cx="269" cy="19" r="0.9" opacity="0.48"/>
    <circle cx="542" cy="220" r="1.0" opacity="0.44"/>
    <circle cx="722" cy="246" r="1.4" opacity="0.31"/>
    <circle cx="763" cy="97" r="1.5" opacity="0.38"/>
    <circle cx="263" cy="215" r="1.3" opacity="0.29"/>
  </g>
  <!-- 星座 -->
  <g stroke="#d9dde3" stroke-width="1" opacity="0.5">
    <line x1="140" y1="110" x2="195" y2="128"/>
    <line x1="195" y1="128" x2="250" y2="120"/>
    <line x1="250" y1="120" x2="290" y2="95"/>
    <line x1="250" y1="120" x2="230" y2="170"/>
    <line x1="230" y1="170" x2="170" y2="160"/>
    <line x1="170" y1="160" x2="140" y2="110"/>
  </g>
  <g fill="#d9dde3" opacity="0.9">
    <circle cx="140" cy="110" r="4" filter="url(#soft)"/>
    <circle cx="195" cy="128" r="3" filter="url(#soft)"/>
    <circle cx="250" cy="120" r="3" filter="url(#soft)"/>
    <circle cx="290" cy="95" r="4" filter="url(#soft)"/>
    <circle cx="230" cy="170" r="3" filter="url(#soft)"/>
    <circle cx="170" cy="160" r="3" filter="url(#soft)"/>
  </g>
  <path d="M0 470 C 200 445, 600 445, 800 470 L 800 500 L 0 500 Z" fill="#d9dde3" opacity="0.14"/>
  <!-- 後光 -->
  <circle cx="400" cy="220" r="185" fill="url(#halo)"/>
  <circle cx="400" cy="220" r="240" fill="url(#glow)"/>
  <circle cx="400" cy="218" r="120" fill="none" stroke="#d9dde3" stroke-width="1.5" opacity="0.4"/>
  <circle cx="400" cy="218" r="132" fill="none" stroke="#d9dde3" stroke-width="0.8" opacity="0.25"/>
  <!-- 髪の面 -->
  <g fill="#a8b0bc" opacity="0.22" filter="url(#blur6)">
    <path d="M360 235 C 300 310, 260 360, 190 430 C 270 370, 315 315, 380 245 Z"/>
    <path d="M440 235 C 500 310, 540 360, 610 430 C 530 370, 485 315, 420 245 Z"/>
  </g>
  <!-- 髪の主線 -->
  <g stroke="#d9dde3" stroke-width="4" fill="none" opacity="0.8" stroke-linecap="round">
    <path d="M370 250 C 330 320, 300 380, 240 460"/>
    <path d="M430 250 C 470 320, 500 380, 560 460"/>
    <path d="M355 240 C 290 300, 250 340, 170 400"/>
    <path d="M445 240 C 510 300, 550 340, 630 400"/>
    <path d="M385 260 C 360 350, 340 420, 300 500"/>
    <path d="M415 260 C 440 350, 460 420, 500 500"/>
    <path d="M348 225 C 260 260, 200 280, 120 330"/>
    <path d="M452 225 C 540 260, 600 280, 680 330"/>
  </g>
  <g stroke="#a8b0bc" stroke-width="2.2" fill="none" opacity="0.5" stroke-linecap="round">
    <path d="M370 250 C 330 320, 300 380, 240 460" transform="translate(9,12)"/>
    <path d="M430 250 C 470 320, 500 380, 560 460" transform="translate(9,12)"/>
    <path d="M355 240 C 290 300, 250 340, 170 400" transform="translate(9,12)"/>
    <path d="M445 240 C 510 300, 550 340, 630 400" transform="translate(9,12)"/>
    <path d="M385 260 C 360 350, 340 420, 300 500" transform="translate(9,12)"/>
  </g>
  <g fill="#d9dde3" opacity="0.85">
    <circle cx="250" cy="420" r="4"/>
    <circle cx="560" cy="430" r="3"/>
    <circle cx="180" cy="370" r="3"/>
    <circle cx="620" cy="360" r="4"/>
    <circle cx="320" cy="470" r="3"/>
    <circle cx="490" cy="465" r="2.5"/>
    <circle cx="140" cy="340" r="2.5"/>
  </g>
  <!-- 神様 -->
  <g fill="#14171c">
    <circle cx="400" cy="215" r="55"/>
    <path d="M392 268 L 408 268 L 410 292 L 390 292 Z"/>
    <path d="M310 400 C 318 300, 370 285, 400 285 C 430 285, 482 300, 490 400 C 495 450, 495 500, 495 500 L 305 500 C 305 500, 305 450, 310 400 Z"/>
  </g>
  <!-- 衣の襞 -->
  <g stroke="#d9dde3" stroke-width="1.2" fill="none" opacity="0.3">
    <path d="M360 310 C 352 380, 350 440, 352 500"/>
    <path d="M440 310 C 448 380, 450 440, 448 500"/>
    <path d="M400 300 C 400 370, 400 440, 400 500"/>
  </g>
  <!-- 襟元の光 -->
  <path d="M368 300 C 385 322, 415 322, 432 300" fill="none" stroke="#d9dde3" stroke-width="2" opacity="0.55"/>
  <!-- 輪郭のふち光 -->
  <circle cx="400" cy="215" r="55" fill="none" stroke="#d9dde3" stroke-width="2.2" opacity="0.65"/>
  <path d="M312 395 C 322 302, 372 287, 400 287 C 428 287, 478 302, 488 395" fill="none" stroke="#d9dde3" stroke-width="1.8" opacity="0.45"/>
  <g fill="#d9dde3" opacity="0.95" filter="url(#soft)">
    <path d="M400 130 C 388 118, 386 102, 396 90 C 402 102, 402 118, 400 130 Z"/>
    <path d="M404 128 C 414 120, 420 106, 414 94 C 406 104, 404 116, 404 128 Z"/></g>
  <rect width="800" height="500" fill="url(#vignette)"/>
</svg>
