<svg xmlns="http://www.w3.org/2000/svg" viewBox="0 0 800 500">
  <defs>
    <linearGradient id="bg" x1="0" y1="1" x2="0" y2="0">
      <stop offset="0" stop-color="#2a1622"/>
      <stop offset="0.55" stop-color="#6e3a55"/>
      <stop offset="1" stop-color="#a86e88"/>
    </linearGradient>
    <radialGradient id="vignette" cx="0.5" cy="0.5" r="0.72">
      <stop offset="0.6" stop-color="#000" stop-opacity="0"/>
      <stop offset="1" stop-color="#000" stop-opacity="0.5"/>
    </radialGradient>
    <radialGradient id="glow" cx="0.5" cy="0.44" r="0.5">
      <stop offset="0" stop-color="#f8e0ea" stop-opacity="0.5"/>
      <stop offset="1" stop-color="#f8e0ea" stop-opacity="0"/>
    </radialGradient>
    <radialGradient id="halo" cx="0.5" cy="0.5" r="0.5">
      <stop offset="0.62" stop-color="#f8e0ea" stop-opacity="0"/>
      <stop offset="0.78" stop-color="#f8e0ea" stop-opacity="0.55"/>
      <stop offset="0.86" stop-color="#f8e0ea" stop-opacity="0.12"/>
      <stop offset="1" stop-color="#f8e0ea" stop-opacity="0"/>
    </radialGradient>
    <filter id="soft" x="-60%" y="-60%" width="220%" height="220%">
      <feGaussianBlur stdDeviation="1.6"/>
    </filter>
    <filter id="blur6" x="-60%" y="-60%" width="220%" height="220%">
      <feGaussianBlur stdDeviation="6"/>
    </filter>
  </defs>
  <rect width="800" height="500" fill="url(#bg)"/>
  <!-- 星空 -->
  <g fill="#ffffff">
    <circle cx="415" cy="29" r="0.8" opacity="0.27"/>
    <circle cx="732" cy="278" r="1.4" opacity="0.57"/>
    <circle cx="329" cy="190" r="0.9" opacity="0.39"/>
    <circle cx="732" cy="81" r="0.9" opacity="0.43"/>
    <circle cx="103" cy="183" r="1.1" opacity="0.33"/>
    <circle cx="486" cy="189" r="1.2" opacity="0.31"/>
    <circle cx="748" cy="25" r="1.6" opacity="0.27"/>
    <circle cx="141" cy="170" r="0.8" opacity="0.41"/>
    <circle cx="162" cy="218" r="1.7" opacity="0.51"/>
    <circle cx="377" cy="139" r="1.6" opacity="0.61"/>
    <circle cx="478" cy="84" r="1.8" opacity="0.45"/>
    <circle cx="707" cy="69" r="0.5" opacity="0.25"/>
    <circle cx="53" cy="297" r="0.5" opacity="0.37"/>
    <circle cx="361" cy="17" r="1.5" opacity="0.68"/>
    <circle cx="519" cy="45" r="1.8" opacity="0.48"/>
    <circle cx="199" cy="65" r="1.4" opacity="0.54"/>
    <circle cx="37" cy="212" r="1.6" opacity="0.26"/>
    <circle cx="178" cy="287" r="1.3" opacity="0.40"/>
    <circle cx="60" cy="271" r="0.6" opacity="0.57"/>
    <circle cx="194" cy="127" r="1.5" opacity="0.64"/>
    <circle cx="632" cy="304" r="1.1" opacity="0.57"/>
    <circle cx="377" cy="202" r="1.5" opacity="0.59"/>
    <circle cx="620" cy="35" r="0.7" opacity="0.38"/>
    <circle cx="78" cy="222" r="1.1" opacity="0.50"/>
    <circle cx="520" cy="284" r="0.7" opacity="0.54"/>
    <circle cx="218" cy="226" r="1.2" opacity="0.28"/>
    <circle cx="55" cy="238" r="1.6" opacity="0.29"/>
    <circle cx="413" cy="39" r="0.8" opacity="0.46"/>
  </g>
  <!-- 星座 -->
  <g stroke="#f8e0ea" stroke-width="1" opacity="0.5">
    <line x1="160" y1="150" x2="210" y2="95"/>
    <line x1="210" y1="95" x2="265" y2="140"/>
    <line x1="160" y1="150" x2="185" y2="180"/>
    <line x1="265" y1="140" x2="240" y2="178"/>
  </g>
  <g fill="#f8e0ea" opacity="0.9">
    <circle cx="160" cy="150" r="4" filter="url(#soft)"/>
    <circle cx="210" cy="95" r="3" filter="url(#soft)"/>
    <circle cx="265" cy="140" r="3" filter="url(#soft)"/>
    <circle cx="185" cy="180" r="4" filter="url(#soft)"/>
    <circle cx="240" cy="178" r="3" filter="url(#soft)"/>
  </g>
  
  <!-- 後光 -->
  <circle cx="400" cy="220" r="185" fill="url(#halo)"/>
  <circle cx="400" cy="220" r="240" fill="url(#glow)"/>
  <circle cx="400" cy="218" r="120" fill="none" stroke="#f8e0ea" stroke-width="1.5" opacity="0.4"/>
  <circle cx="400" cy="218" r="132" fill="none" stroke="#f8e0ea" stroke-width="0.8" opacity="0.25"/>
  <!-- 髪の面 -->
  <g fill="#e0aec4" opacity="0.22" filter="url(#blur6)">
    <path d="M400 175 C 520 130, 640 155, 770 120 C 645 175, 525 155, 405 195 Z"/>
    <path d="M405 225 C 530 225, 645 265, 775 250 C 645 285, 525 250, 400 245 Z"/>
  </g>
  <!-- 髪の主線 -->
  <g stroke="#f8e0ea" stroke-width="4" fill="none" opacity="0.8" stroke-linecap="round">
    <path d="M400 170 C 500 130, 620 150, 760 110"/>
    <path d="M410 195 C 530 175, 640 200, 780 170"/>
    <path d="M415 220 C 540 220, 650 250, 790 230"/>
    <path d="M410 245 C 530 265, 630 300, 770 290"/>
    <path d="M395 165 C 470 110, 560 100, 680 60"/>
    <path d="M355 185 C 250 160, 160 180, 40 150"/>
    <path d="M350 215 C 240 220, 150 250, 30 240"/>
    <path d="M360 240 C 260 270, 170 300, 60 310"/>
  </g>
  <g stroke="#e0aec4" stroke-width="2.2" fill="none" opacity="0.5" stroke-linecap="round">
    <path d="M400 170 C 500 130, 620 150, 760 110" transform="translate(9,12)"/>
    <path d="M410 195 C 530 175, 640 200, 780 170" transform="translate(9,12)"/>
    <path d="M415 220 C 540 220, 650 250, 790 230" transform="translate(9,12)"/>
    <path d="M410 245 C 530 265, 630 300, 770 290" transform="translate(9,12)"/>
    <path d="M395 165 C 470 110, 560 100, 680 60" transform="translate(9,12)"/>
  </g>
  <g fill="#f8e0ea" opacity="0.85">
    <circle cx="700" cy="90" r="4"/>
    <circle cx="750" cy="200" r="3"/>
    <circle cx="90" cy="140" r="3"/>
    <circle cx="60" cy="270" r="4"/>
    <circle cx="650" cy="300" r="3"/>
    <circle cx="730" cy="150" r="2.5"/>
    <circle cx="110" cy="230" r="2.5"/>
  </g>
  <!-- 神様 -->
  <g fill="#2a1622">
    <circle cx="400" cy="215" r="55"/>
    <path d="M392 268 L 408 268 L 410 292 L 390 292 Z"/>
    <path d="M310 400 C 318 300, 370 285, 400 285 C 430 285, 482 300, 490 400 C 495 450, 495 500, 495 500 L 305 500 C 305 500, 305 450, 310 400 Z"/>
  </g>
  <!-- 衣の襞 -->
  <g stroke="#f8e0ea" stroke-width="1.2" fill="none" opacity="0.3">
    <path d="M360 310 C 352 380, 350 440, 352 500"/>
    <path d="M440 310 C 448 380, 450 440, 448 500"/>
    <path d="M400 300 C 400 370, 400 440, 400 500"/>
  </g>
  <!-- 襟元の光 -->
  <path d="M368 300 C 385 322, 415 322, 432 300" fill="none" stroke="#f8e0ea" stroke-width="2" opacity="0.55"/>
  <!-- 輪郭のふち光 -->
  <circle cx="400" cy="215" r="55" fill="none" stroke="#f8e0ea" stroke-width="2.2" opacity="0.65"/>
  <path d="M312 395 C 322 302, 372 287, 400 287 C 428 287, 478 302, 488 395" fill="none" stroke="#f8e0ea" stroke-width="1.8" opacity="0.45"/>
  <g stroke="#f8e0ea" stroke-width="3" fill="none" opacity="0.95" stroke-linecap="round" filter="url(#soft)">
    <path d="M382 118 C 392 108, 408 108, 418 118"/>
    <path d="M376 106 C 390 92, 410 92, 424 106"/>
    <path d="M388 128 C 396 122, 404 122, 412 128"/></g>
  <rect width="800" height="500" fill="url(#vignette)"/>
</svg>
